<svg width="18" height="10" viewBox="0 0 18 10" fill="none" xmlns="http://www.w3.org/2000/svg">
<path d="M0.703125 0.982422H5.60742L5.76562 1.14062V3.03906L5.60742 3.19727H4.89844V5.33008L4.58203 5.64648L4.6582 5.72852V5.80469C4.49023 6.26562 4.20117 6.71484 3.79102 7.15234C4.00195 7.15234 4.10742 7.20508 4.10742 7.31055H4.18359C4.32422 7.28711 4.48242 7.10156 4.6582 6.75391L4.5 6.5957L4.74023 6.51953L4.6582 6.4375V6.36133L4.81641 6.20312L4.89844 6.2793V7.78516H5.60742L5.76562 7.94336V9.8418L5.60742 10H1.41797L0.943359 9.44336L1.01953 9.36719V9.28516L0.785156 9.12695H0.703125V9.20898L1.25977 9.91797V10H0.703125L0.544922 9.8418V7.94336L0.703125 7.78516H1.41797V3.19727L1.10156 3.03906H1.01953V3.19727H0.861328L0.943359 3.11523V2.95703H0.861328V3.11523L0.785156 3.03906L0.703125 3.11523H0.544922V1.14062L0.703125 0.982422ZM4.74023 1.77344L3.47461 3.11523H3.55078L4.81641 1.77344H4.74023ZM4.89844 2.48242L5.05664 2.64062L5.21484 2.48242H4.89844ZM1.96875 6.67773L1.89258 6.99414H2.12695V6.67773H1.96875ZM7.17773 0.976562H7.33594C7.4375 0.976562 7.48828 1.05469 7.48828 1.21094H7.64648C7.64648 1.05469 7.69922 0.976562 7.80469 0.976562H12.041C14.7949 0.976562 16.2871 1.39453 16.5176 2.23047C16.6582 2.23047 16.7617 2.5957 16.8281 3.32617V3.48438C16.8281 4.25781 16.332 4.80664 15.3398 5.13086V5.21289C15.707 5.21289 16.0996 5.47461 16.5176 5.99805C16.7793 5.99805 16.9883 6.39062 17.1445 7.17578V7.48633C17.1016 8.54492 16.5781 9.22656 15.5742 9.53125L15.498 9.44922L15.416 9.53125L15.2637 9.37305H15.1055L14.9473 9.53125L14.5547 9.37305L14.4785 9.44922H14.3965C14.0293 9.32422 13.8457 9.2207 13.8457 9.13867L13.7695 9.21484H13.6934L12.9844 8.82227C12.9844 9.13477 12.9316 9.29102 12.8262 9.29102V9.13867H12.668L13.0605 9.53125L13.1426 9.44922H13.2188L13.5352 9.60742L13.8457 9.53125L13.9277 9.60742L14.0039 9.53125H14.1621L14.3965 9.76562V9.8418C13.5605 9.94727 12.1738 10 10.2363 10H7.17773L7.01953 9.8418V7.87891L7.17773 7.72656H7.80469V3.17383L7.41211 3.25H7.17773L7.01953 3.0918V1.44531L7.17773 1.21094V1.12891H7.01953L7.17773 0.976562ZM7.80469 1.28711V1.36914H7.96289V1.28711H7.80469ZM7.88086 2.93359V3.01562L7.96289 3.0918H8.03906V3.01562L7.96289 2.93359H7.88086ZM11.3379 3.01562V4.58594H11.7305C12.7227 4.58594 13.2188 4.37695 13.2188 3.95898V3.71875C13.2188 3.25 12.7754 3.01562 11.8887 3.01562H11.3379ZM15.1816 5.76367V5.91602L15.3398 6.07422L15.416 5.83984L15.3398 5.76367H15.1816ZM11.3379 6.23242V7.96094H11.6484C12.8008 7.96094 13.377 7.75195 13.377 7.33398L13.4531 7.01758C13.4531 6.49414 12.8789 6.23242 11.7305 6.23242H11.3379ZM13.6113 7.64453V7.72656H13.7695V7.64453H13.6113ZM13.8457 7.72656V7.80273H14.0039V7.72656H13.8457ZM12.9844 8.03711V8.19531H13.0605V8.03711H12.9844ZM8.90039 9.05664V9.13867L9.2168 9.29102H9.60938V9.21484L9.29297 9.05664H8.90039ZM15.0234 9.60742H15.1055V9.76562L14.6309 9.8418V9.68359L15.0234 9.60742Z" fill="#D21D2B"/>
</svg>
